<svg xmlns="http://www.w3.org/2000/svg" viewBox="0 0 980 38" width="980" height="38" fill="none">
<path d="M221.75 -1.01C239.34 -1.06 226.16 -0.55 227.95 0.74C229.73 2.02 231.69 4.69 232.48 6.7C233.26 8.7 232.62 9.7 232.65 12.79C232.68 15.88 232.84 22.03 232.66 25.24C232.48 28.44 232.29 30.14 231.55 32.01C230.81 33.87 229.98 35.27 228.22 36.44C226.46 37.6 237.94 38.76 220.98 39.02C204.01 39.27 142.96 38.3 126.43 37.98C109.89 37.65 123.45 38.15 121.75 37.07C120.05 35.99 117.34 33.22 116.25 31.5C115.16 29.77 115.45 29.86 115.22 26.73C114.99 23.6 114.73 16.32 114.89 12.73C115.05 9.14 114.92 7.13 116.17 5.18C117.42 3.23 104.81 2.06 122.41 1.02C140 -0.01 204.16 -0.97 221.75 -1.01Z" stroke="#6e675f" stroke-width="1.7"/><text x="174.5" y="25" font-family="ui-sans-serif, -apple-system, 'Segoe UI', Roboto, 'Helvetica Neue', Arial, sans-serif" font-size="15" fill="#2b2622" text-anchor="middle">Cloudflare</text><path d="M315.65 -0.83C327.85 -0.97 321.4 -0.34 323.36 0.72C325.32 1.78 326.68 3.78 327.41 5.52C328.14 7.26 327.58 7.77 327.73 11.14C327.88 14.51 328.46 22.44 328.29 25.74C328.13 29.04 327.55 29.31 326.71 30.92C325.87 32.54 325.11 34.13 323.25 35.41C321.39 36.69 326.54 38 315.57 38.6C304.6 39.21 268.11 39.54 257.44 39.03C246.77 38.52 253.52 36.82 251.54 35.53C249.57 34.24 246.85 32.72 245.6 31.27C244.34 29.82 244.25 30.11 243.99 26.81C243.73 23.51 243.53 14.93 244.06 11.48C244.58 8.04 246.1 7.78 247.12 6.13C248.13 4.48 238.73 2.76 250.15 1.6C261.58 0.44 303.44 -0.68 315.65 -0.83Z" stroke="#6e675f" stroke-width="1.7"/><text x="286.5" y="25" font-family="ui-sans-serif, -apple-system, 'Segoe UI', Roboto, 'Helvetica Neue', Arial, sans-serif" font-size="15" fill="#2b2622" text-anchor="middle">Docker</text><path d="M403.37 -0.88C414.2 -1.05 408.64 -0.34 410.37 0.62C412.09 1.59 412.78 2.88 413.71 4.91C414.63 6.93 415.79 9.24 415.92 12.79C416.05 16.35 414.8 23.09 414.52 26.23C414.24 29.36 415.13 29.74 414.23 31.6C413.33 33.46 410.84 36.43 409.11 37.39C407.39 38.35 413.37 37.14 403.86 37.36C394.36 37.57 361.89 38.97 352.09 38.69C342.28 38.41 346.92 36.85 345.03 35.68C343.13 34.51 341.62 33.16 340.71 31.67C339.79 30.19 339.86 29.94 339.52 26.78C339.17 23.61 338.3 16.06 338.64 12.71C338.97 9.35 340.4 8.51 341.53 6.67C342.65 4.82 335.07 2.91 345.37 1.66C355.68 0.4 392.54 -0.71 403.37 -0.88Z" stroke="#6e675f" stroke-width="1.7"/><text x="377.5" y="25" font-family="ui-sans-serif, -apple-system, 'Segoe UI', Roboto, 'Helvetica Neue', Arial, sans-serif" font-size="15" fill="#2b2622" text-anchor="middle">Linux</text><path d="M490.55 0.73C501.24 0.59 495.18 -0.03 497.04 0.99C498.9 2 500.67 5.15 501.7 6.82C502.72 8.5 503.09 7.97 503.19 11.04C503.28 14.11 502.53 21.87 502.28 25.22C502.03 28.57 502.69 29.31 501.69 31.11C500.69 32.91 498.03 35.05 496.29 36.02C494.54 37 500.87 36.72 491.22 36.97C481.56 37.23 448.05 37.58 438.35 37.57C428.65 37.55 434.61 37.88 433 36.88C431.4 35.89 429.96 33.24 428.71 31.59C427.47 29.95 426 30.4 425.54 27.04C425.08 23.68 425.46 14.91 425.95 11.41C426.43 7.92 427.26 7.66 428.43 6.06C429.59 4.46 422.56 2.69 432.92 1.8C443.27 0.91 479.87 0.86 490.55 0.73Z" stroke="#6e675f" stroke-width="1.7"/><text x="464.5" y="25" font-family="ui-sans-serif, -apple-system, 'Segoe UI', Roboto, 'Helvetica Neue', Arial, sans-serif" font-size="15" fill="#2b2622" text-anchor="middle">macOS</text><path d="M653.65 0.34C676.97 0.42 658.03 0.1 659.67 1.11C661.32 2.12 662.46 4.56 663.52 6.43C664.59 8.29 665.54 9.2 666.04 12.31C666.54 15.42 666.79 21.78 666.52 25.09C666.26 28.4 665.73 30.2 664.46 32.18C663.2 34.16 660.61 36.2 658.91 36.99C657.21 37.79 676.48 36.91 654.27 36.97C632.05 37.03 548.16 37.37 525.6 37.36C503.04 37.35 520.51 37.75 518.91 36.9C517.32 36.05 517.04 34.23 516.04 32.27C515.03 30.3 513.13 28.57 512.87 25.11C512.61 21.66 513.98 14.76 514.45 11.54C514.93 8.33 514.84 7.65 515.73 5.84C516.61 4.03 496.76 1.59 519.75 0.68C542.74 -0.24 630.33 0.27 653.65 0.34Z" stroke="#6e675f" stroke-width="1.7"/><text x="589.5" y="25" font-family="ui-sans-serif, -apple-system, 'Segoe UI', Roboto, 'Helvetica Neue', Arial, sans-serif" font-size="15" fill="#2b2622" text-anchor="middle">GitHub Actions</text><path d="M747.84 1C759.88 1.03 752.44 0.53 754.18 1.44C755.91 2.35 757.09 4.56 758.24 6.45C759.4 8.34 760.92 9.57 761.11 12.79C761.3 16.01 759.91 22.54 759.4 25.77C758.9 29 758.73 30.53 758.08 32.18C757.42 33.82 757.23 34.78 755.48 35.63C753.73 36.48 758.78 36.79 747.6 37.28C736.42 37.76 699.22 38.55 688.41 38.55C677.61 38.55 684.35 38.24 682.77 37.27C681.19 36.29 679.99 34.56 678.93 32.7C677.88 30.83 676.94 29.57 676.45 26.09C675.97 22.6 675.71 15.1 676.03 11.79C676.35 8.48 677.39 8 678.38 6.24C679.37 4.48 670.4 2.1 681.98 1.23C693.56 0.35 735.81 0.96 747.84 1Z" stroke="#6e675f" stroke-width="1.7"/><text x="718.5" y="25" font-family="ui-sans-serif, -apple-system, 'Segoe UI', Roboto, 'Helvetica Neue', Arial, sans-serif" font-size="15" fill="#2b2622" text-anchor="middle">Vercel</text><path d="M852.46 0.51C866.1 0.26 856.93 0.06 858.84 0.8C860.74 1.54 862.8 3.23 863.9 4.94C865 6.65 865.19 7.49 865.45 11.05C865.71 14.62 865.81 22.91 865.47 26.34C865.13 29.77 864.61 29.99 863.4 31.63C862.18 33.28 860.12 35.13 858.2 36.2C856.28 37.27 864.45 37.84 851.86 38.03C839.27 38.23 795.05 37.54 782.65 37.37C770.26 37.2 779.03 38.08 777.48 37.01C775.93 35.95 774.33 32.71 773.38 30.98C772.43 29.25 771.95 29.94 771.78 26.63C771.6 23.32 772.04 14.66 772.33 11.1C772.62 7.53 772.75 6.7 773.53 5.23C774.31 3.76 763.86 3.06 777.02 2.27C790.17 1.48 838.82 0.75 852.46 0.51Z" stroke="#6e675f" stroke-width="1.7"/><text x="818" y="25" font-family="ui-sans-serif, -apple-system, 'Segoe UI', Roboto, 'Helvetica Neue', Arial, sans-serif" font-size="15" fill="#2b2622" text-anchor="middle">Netlify</text>
</svg>
