<svg xmlns="http://www.w3.org/2000/svg" viewBox="0 0 980 26" width="980" height="26" fill="none">
<path d="M-0.87 13.71C12.28 13.76 52.26 14.09 78.03 13.99C103.8 13.9 128.13 13.18 153.76 13.16C179.39 13.14 205.84 13.87 231.79 13.87C257.73 13.88 283.51 13.15 309.43 13.18C335.35 13.21 361.53 14.23 387.29 14.07C413.05 13.91 451.2 12.52 463.99 12.2" stroke="rgba(234,227,214,0.24)" stroke-width="1.6" stroke-linecap="round"/><path d="M0.36 12.77C13.09 12.85 51.12 13.31 76.75 13.28C102.38 13.25 128.21 12.73 154.14 12.57C180.07 12.41 206.39 12.11 232.34 12.3C258.29 12.5 284.12 13.5 309.81 13.74C335.51 13.99 360.82 13.87 386.5 13.76C412.19 13.65 451.02 13.21 463.93 13.1" stroke="rgba(234,227,214,0.24)" stroke-width="1.6" stroke-linecap="round"/><path d="M514.98 13.02C528.11 12.88 567.65 12.36 593.75 12.22C619.86 12.08 645.95 12.18 671.62 12.19C697.3 12.2 722.31 12.12 747.81 12.27C773.31 12.43 798.93 12.99 824.64 13.12C850.34 13.25 876.32 13.13 902.04 13.07C927.75 13.01 966.13 12.81 978.95 12.76" stroke="rgba(234,227,214,0.24)" stroke-width="1.6" stroke-linecap="round"/><path d="M516.1 12.83C529 12.78 567.73 12.47 593.49 12.55C619.25 12.64 644.9 13.19 670.66 13.32C696.41 13.44 722.33 13.27 748.01 13.3C773.69 13.33 798.91 13.52 824.73 13.48C850.55 13.44 877.17 13.1 902.95 13.04C928.74 12.98 966.71 13.1 979.46 13.11" stroke="rgba(234,227,214,0.24)" stroke-width="1.6" stroke-linecap="round"/><path d="M495.7 12.22C495.73 12.69 496.16 14.1 495.9 15.05C495.64 15.99 494.87 17.41 494.16 17.88C493.44 18.36 492.22 17.81 491.59 17.9C490.97 17.98 490.94 18.23 490.42 18.39C489.9 18.56 489.29 18.98 488.48 18.89C487.67 18.8 486.31 18.53 485.55 17.85C484.8 17.18 484.14 15.73 483.93 14.82C483.73 13.91 484.24 13.05 484.33 12.4C484.42 11.76 484.34 11.58 484.48 10.98C484.63 10.38 484.59 9.33 485.2 8.79C485.82 8.26 487.46 8.05 488.18 7.75C488.9 7.45 488.86 7.12 489.51 7C490.17 6.88 491.21 6.78 492.11 7.03C493.01 7.27 494.25 7.94 494.93 8.46C495.6 8.97 496.03 9.25 496.16 10.12C496.3 11 495.81 13.12 495.74 13.72" stroke="#ff8a7a" stroke-width="1.8"/>
</svg>
